<svg xmlns="http://www.w3.org/2000/svg" version="1.1" xmlns:xlink="http://www.w3.org/1999/xlink" width="1500" height="143" viewBox="0 0 1500 143"><svg xml:space="preserve" width="1500" height="143" data-version="2" data-id="lg_Q6FCRNOxvQTBA6QIxQ" viewBox="0 0 571 143" x="0" y="0"><rect width="100%" height="100%" fill="transparent"></rect><rect width="311.27" height="155.8" x="-155.63" y="-77.9" fill="#ad79e1" paint-order="stroke" rx="19" ry="19" transform="translate(145.75 71.5)scale(.9011)"></rect><rect width="311.27" height="155.8" x="-155.63" y="-77.9" fill="#0099f2" paint-order="stroke" rx="19" ry="19" transform="translate(425.25 71.5)scale(.9011)"></rect><path fill="#fff" d="M41.72 44.53v-1.37h23.4v1.37h-3.96v31.1q0 9.72-4.39 14.15-4.4 4.43-13.18 4.43-5.83 0-9.25-2.23-3.42-2.24-3.42-6.27 0-3.09 1.73-4.86 1.72-1.76 4.71-1.76t4.47 1.51q1.47 1.51 1.47 3.64 0 2.12-.79 4.28H39.7q-.65 1.08-.65 2.05 0 .97.98 1.66.97.68 2.55.68 2.88 0 3.71-2.27.83-2.26.83-9.82V44.53z" paint-order="stroke"></path><rect width="34.2" height="51.05" x="-17.1" y="-25.52" fill="none" rx="0" ry="0" transform="translate(48.52 69.19)"></rect><path fill="#fff" d="M90.25 79.38v-6.12q0-6.99-.76-10.19-.76-3.21-3.49-3.21-1.59 0-2.56.9t-1.4 2.99q-.65 3.24-.65 9.87v5.61q0 7.85.47 9.43.47 1.59.97 2.6.79 1.72 3.1 1.72 2.8 0 3.67-3.24.65-2.3.65-10.36m-4.47 14.9q-9 0-13.61-4.61-4.6-4.61-4.6-13.21 0-8.6 4.93-13.25 4.93-4.64 13.86-4.64t13.32 4.28q4.39 4.29 4.39 13.07 0 18.36-18.29 18.36" paint-order="stroke"></path><rect width="36.5" height="35.71" x="-18.25" y="-17.86" fill="none" rx="0" ry="0" transform="translate(86.32 76.92)"></rect><path fill="#fff" d="M132.37 74.19q0-7.41-.72-9.97-.72-2.56-2.81-2.56t-3.75 2.6q-1.65 2.59-1.65 7.12v13.4q0 3.09 1.26 5.25t3.6 2.16q2.34 0 3.2-3.17.87-3.16.87-11.08zm-26.28-34.63h17.35v25.2q2.73-6.19 9.36-6.19 13.46 0 13.46 17.93 0 9.14-3.71 13.46-3.7 4.32-11.12 4.32-3.74 0-5.72-1.15-1.98-1.15-2.7-3.82l-.51 4.25h-16.41v-1.3h3.96v-51.4h-3.96z" paint-order="stroke"></path><rect width="40.17" height="54.72" x="-20.09" y="-27.36" fill="none" rx="0" ry="0" transform="translate(126.67 67.42)"></rect><path fill="#fff" d="M165.7 76.64h2.09V71.1q0-6.84-.76-9.18-.75-2.34-2.91-2.34-1.3 0-2.34.68-1.05.68-1.05 1.87t.44 2.41h1.8q.57 1.52.57 3.64t-1.8 3.67q-1.8 1.55-4.53 1.55-6.2 0-6.2-5.98 0-8.85 15.05-8.85 8.57 0 11.85 2.91 3.27 2.92 3.27 10.7v14.61q0 3.75 2.09 3.75 2.45 0 2.88-7.42l1.08.07q-.29 6.34-2.38 8.71-2.08 2.38-6.84 2.38-8.64 0-9.93-5.33-.94 2.74-2.81 4.03-1.87 1.3-5.47 1.3-10.66 0-10.66-8.71 0-5.11 4.07-7.02 4.07-1.91 12.49-1.91m-2.88 8.86q0 3.74.4 4.82.39 1.08 1.51 1.08t2.09-1.84q.97-1.83.97-5.07v-6.7h-.5q-4.47 0-4.47 6.55z" paint-order="stroke"></path><rect width="38.09" height="35.71" x="-19.05" y="-17.86" fill="none" rx="0" ry="0" transform="translate(168.69 76.92)"></rect><path fill="#fff" d="M190.47 94.28h-.86V81.39h.86q1.87 6.27 5.04 8.79 3.17 2.52 7.92 2.52 7.34 0 7.34-4.68 0-2.02-1.8-3.03-2.8-1.58-7.2-2.45-4.89-1.29-8.2-3.45-3.96-2.59-3.96-8.21 0-5.62 3.45-8.96 3.46-3.35 9.22-3.35 3.53 0 7.27 1.65 1.37.58 2.09.58.72 0 1.22-.5.51-.51 1.23-1.88h.79v11.02h-.87q-3.67-9.36-11.37-9.36-3.39 0-5.04 1.19-1.66 1.19-1.66 2.99 0 1.08.51 1.69.5.61.79.9.29.29.93.61.65.32 1.08.5.44.18 1.34.47.9.29 1.33.36 4.89 1.23 7.05 2.13 2.16.9 4.11 2.19 3.96 2.74 3.96 8.82 0 6.09-3.6 9.22-3.6 3.13-9.87 3.13-4.46 0-8.64-2.09-.86-.57-1.36-.57-1.59 0-3.1 2.66" paint-order="stroke"></path><rect width="27.43" height="35.86" x="-13.71" y="-17.93" fill="none" rx="0" ry="0" transform="translate(203.82 76.85)"></rect><path fill="#fff" d="M221.72 94.28h-.87V81.39h.87q1.87 6.27 5.04 8.79 3.17 2.52 7.92 2.52 7.34 0 7.34-4.68 0-2.02-1.8-3.03-2.81-1.58-7.2-2.45-4.89-1.29-8.21-3.45-3.96-2.59-3.96-8.21 0-5.62 3.46-8.96 3.46-3.35 9.22-3.35 3.52 0 7.27 1.65 1.37.58 2.09.58.72 0 1.22-.5.5-.51 1.22-1.88h.8v11.02h-.87q-3.67-9.36-11.37-9.36-3.39 0-5.04 1.19-1.66 1.19-1.66 2.99 0 1.08.5 1.69.51.61.8.9.28.29.93.61t1.08.5q.43.18 1.33.47.9.29 1.34.36 4.89 1.23 7.05 2.13 2.16.9 4.11 2.19 3.96 2.74 3.96 8.82 0 6.09-3.6 9.22-3.6 3.13-9.87 3.13-4.46 0-8.64-2.09-.86-.57-1.37-.57-1.58 0-3.09 2.66" paint-order="stroke"></path><rect width="27.44" height="35.86" x="-13.72" y="-17.93" fill="none" rx="0" ry="0" transform="translate(235.07 76.85)"></rect><path fill="#fff" d="M267.73 76.64h2.08V71.1q0-6.84-.75-9.18-.76-2.34-2.92-2.34-1.29 0-2.34.68-1.04.68-1.04 1.87t.43 2.41h1.8q.58 1.52.58 3.64t-1.8 3.67q-1.8 1.55-4.54 1.55-6.19 0-6.19-5.98 0-8.85 15.05-8.85 8.56 0 11.84 2.91 3.28 2.92 3.28 10.7v14.61q0 3.75 2.08 3.75 2.45 0 2.88-7.42l1.08.07q-.28 6.34-2.37 8.71-2.09 2.38-6.84 2.38-8.64 0-9.94-5.33-.93 2.74-2.81 4.03-1.87 1.3-5.47 1.3-10.65 0-10.65-8.71 0-5.11 4.06-7.02 4.07-1.91 12.5-1.91m-2.88 8.86q0 3.74.39 4.82.4 1.08 1.51 1.08 1.12 0 2.09-1.84.97-1.83.97-5.07v-6.7h-.5q-4.46 0-4.46 6.55z" paint-order="stroke"></path><rect width="38.08" height="35.71" x="-19.04" y="-17.86" fill="none" rx="0" ry="0" transform="translate(270.71 76.92)"></rect><path fill="#fff" d="M289.97 60.58v-1.29h17.36v6.62q2.37-7.34 10.47-7.34 8.1 0 9.83 7.77 2.52-7.77 10.58-7.77 10.59 0 10.59 12.02v21.67h4.03v1.3h-19.94v-1.3h2.52v-23.4q0-5.47-.94-6.4-.43-.44-1.15-.44-2.09 0-3.67 2.81-1.59 2.81-1.59 7.13v20.3h2.59v1.3h-18.5v-1.3h2.52v-23.4q0-5.47-.94-6.4-.43-.44-1.15-.44-2.01 0-3.63 3.06t-1.62 7.31v19.87h2.59v1.3h-19.95v-1.3h3.96V60.58z" paint-order="stroke"></path><rect width="62.86" height="34.99" x="-31.43" y="-17.5" fill="none" rx="0" ry="0" transform="translate(321.9 76.56)"></rect><path fill="#fff" d="M356.43 94.28h-.86V81.39h.86q1.87 6.27 5.04 8.79 3.17 2.52 7.92 2.52 7.34 0 7.34-4.68 0-2.02-1.8-3.03-2.8-1.58-7.2-2.45-4.89-1.29-8.2-3.45-3.96-2.59-3.96-8.21 0-5.62 3.45-8.96 3.46-3.35 9.22-3.35 3.53 0 7.27 1.65 1.37.58 2.09.58.72 0 1.22-.5.51-.51 1.23-1.88h.79v11.02h-.87q-3.67-9.36-11.37-9.36-3.39 0-5.04 1.19-1.66 1.19-1.66 2.99 0 1.08.51 1.69.5.61.79.9.29.29.93.61.65.32 1.08.5.44.18 1.34.47.9.29 1.33.36 4.89 1.23 7.05 2.13 2.16.9 4.11 2.19 3.96 2.74 3.96 8.82 0 6.09-3.6 9.22-3.6 3.13-9.87 3.13-4.46 0-8.64-2.09-.86-.57-1.36-.57-1.59 0-3.1 2.66" paint-order="stroke"></path><rect width="27.43" height="35.86" x="-13.71" y="-17.93" fill="none" rx="0" ry="0" transform="translate(369.79 76.85)"></rect><path fill="#fff" d="M393.91 94.28q-3.14 0-4.68-1.84-1.55-1.83-1.55-4.46t1.62-4.43q1.62-1.8 4.57-1.8t4.68 1.51q1.73 1.52 1.73 4.54t-1.62 4.75q-1.62 1.73-4.75 1.73" paint-order="stroke"></path><rect width="12.6" height="12.53" x="-6.3" y="-6.26" fill="none" rx="0" ry="0" transform="translate(394.48 88.52)"></rect><path fill="#fff" d="M424.4 59.86q-3.17 0-4.54 3.46t-1.37 11.45v3.74q0 7.13 1.59 10.23 1.58 3.09 5.83 3.09t6.77-2.88q2.52-2.88 3.24-6.55l1.29.14q-1.36 6.2-5.04 8.93-3.74 2.81-10.29 2.81-8.35 0-12.82-4.5-4.46-4.5-4.46-13.18 0-8.67 5.07-13.35 5.08-4.68 14.15-4.68 6.41 0 9.79 2.48 3.39 2.49 3.39 6.23t-1.62 5.47q-1.62 1.73-4.47 1.73-2.84 0-4.57-1.51-1.73-1.51-1.73-4.47 0-1.29.36-2.59h2.38q.5-1.44.5-2.59 0-3.46-3.45-3.46" paint-order="stroke"></path><rect width="32.61" height="35.71" x="-16.3" y="-17.86" fill="none" rx="0" ry="0" transform="translate(421.4 76.92)"></rect><path fill="#fff" d="M462.27 79.38v-6.12q0-6.99-.76-10.19-.75-3.21-3.49-3.21-1.58 0-2.55.9-.98.9-1.41 2.99-.65 3.24-.65 9.87v5.61q0 7.85.47 9.43.47 1.59.97 2.6.8 1.72 3.1 1.72 2.81 0 3.67-3.24.65-2.3.65-10.36m-4.46 14.9q-9 0-13.61-4.61-4.61-4.61-4.61-13.21 0-8.6 4.93-13.25 4.93-4.64 13.86-4.64t13.32 4.28q4.39 4.29 4.39 13.07 0 18.36-18.28 18.36" paint-order="stroke"></path><rect width="36.5" height="35.71" x="-18.25" y="-17.86" fill="none" rx="0" ry="0" transform="translate(458.34 76.92)"></rect><path fill="#fff" d="M478.11 60.58v-1.29h17.35v6.62q2.38-7.34 10.48-7.34 8.1 0 9.83 7.77 2.52-7.77 10.58-7.77 10.58 0 10.58 12.02v21.67h4.04v1.3h-19.95v-1.3h2.52v-23.4q0-5.47-.93-6.4-.44-.44-1.16-.44-2.08 0-3.67 2.81-1.58 2.81-1.58 7.13v20.3h2.59v1.3h-18.5v-1.3h2.52v-23.4q0-5.47-.94-6.4-.43-.44-1.15-.44-2.02 0-3.64 3.06t-1.62 7.31v19.87h2.59v1.3h-19.94v-1.3h3.96V60.58z" paint-order="stroke"></path><rect width="62.86" height="34.99" x="-31.43" y="-17.5" fill="none" rx="0" ry="0" transform="translate(510.04 76.56)"></rect></svg></svg>